# xmcd
#
# Track frame offsets:
#	150
#	16259
#	28287
#	44708
#	62561
#	79626
#	93815
#	107826
#	123639
#	138161
#	152509
#	165158
#	179610
#	196577
#	213589
#	228812
#	244660
#	260669
#	277771
#	297187
#	308079
#
# Disc length: 4370 seconds
#
# Revision: 1
# Processed by: cddbd v1.5.2PL0 Copyright (c) Steve Scherf et al.
# Submitted via: audiograbber 1.83.01
#
DISCID=16111015
DTITLE=Various Artist - CDX 448
DYEAR=2008
DGENRE=Country
TTITLE0=Carter's Chord - Different Breed
TTITLE1=One Flew South - My Kind Of Beautiful
TTITLE2=Chris Cagle - No Love Songs (radio edit)
TTITLE3=Brooks and Dunn - Put A Girl In It
TTITLE4=Jason Aldean - Relentless
TTITLE5=Rebecca Lynn Howard - Sing Cause I Love To
TTITLE6=Amanda Lynn - Buckwild
TTITLE7=Allison Janisse - Give Me A Cowboy
TTITLE8=Leslie Martin - Goodbye Blues
TTITLE9=Sherry Lynn - Love Or Something Like It
TTITLE10=Richie Fields - Man Enough To Cry
TTITLE11=Jadi Norris - Man Of Steel
TTITLE12=Katy Kiefer - Rainmaker
TTITLE13=Mikel Knight - Saddle Up
TTITLE14=Rhonda Towns - Slow Rain
TTITLE15=Jeff Olson - Tequila Rose
TTITLE16=Lady Antebellum - CMA Music Festival Liner
TTITLE17=Bucky Covington - CMA Music Festival Liner
TTITLE18=Jack Ingram - CMA Music Festival Liner
TTITLE19=Julie Roberts - CMA Music Festival Liner
TTITLE20=Taylor Swift - CMA Music Festival Liner
EXTD=
EXTT0=
EXTT1=
EXTT2=
EXTT3=
EXTT4=
EXTT5=
EXTT6=
EXTT7=
EXTT8=
EXTT9=
EXTT10=
EXTT11=
EXTT12=
EXTT13=
EXTT14=
EXTT15=
EXTT16=
EXTT17=
EXTT18=
EXTT19=
EXTT20=
PLAYORDER=
